<svg xmlns="http://www.w3.org/2000/svg" width="85" height="80" viewBox="0 0 85 80">
  <g fill="none">
    <path fill="#802D04" d="M57.4614407,5.05424332 C61.9347458,5.7745823 64.4055085,8.82881959 65.4644068,12.9779721 C68.2233051,23.7830569 62.4533898,47.3021247 42.4783898,47.5542433 C32.1775424,47.6983111 24.7580508,45.0762772 22.0567797,36.7491586 C19.3555085,28.4220399 18.2461864,15.0093281 24.1025424,7.48178569 C31.5076271,-1.99067194 47.0237288,-2.09151939 57.4614407,5.05424332 Z"/>
    <path fill="#FFD16E" d="M33.8415254,60.2754298 C15.1127119,68.4728874 9.53728814,72.8381416 7.31864407,74.804667 C3.90423729,77.8228874 2.01694915,89.0889891 0,98.6550908 L84.6110169,98.6550908 C82.5940678,89.0889891 80.7067797,77.8228874 77.2923729,74.804667 C75.0737288,72.8381416 69.6711864,68.5809382 50.9783898,60.3978874 L33.8415254,60.2754298 Z"/>
    <path fill="#FFDECC" d="M51.3673729,43.9381416 L51.3673729,64.6622942 C46.3754237,70.7779721 38.2067797,70.5618704 33.2148305,64.6622942 L33.2148305,43.9381416 C33.2148305,32.7512772 51.3673729,32.7512772 51.3673729,43.9381416 Z"/>
    <path fill="#F7C5AA" d="M51.3673729,43.9381416 L51.3673729,57.8118704 C47.9385593,60.3186501 44.625,61.7161077 42.2911017,61.7161077 C39.9572034,61.7161077 36.6508475,60.3186501 33.2148305,57.8118704 L33.2148305,43.9381416 C33.2148305,32.7512772 51.3673729,32.7512772 51.3673729,43.9381416 Z"/>
    <path fill="#FFDECC" d="M42.2911017,6.73263315 C11.8279661,6.73263315 22.784322,43.5491586 24.7724576,46.4737348 C26.9694915,49.7080569 37.3711864,58.2728874 42.2911017,58.2728874 C47.2110169,58.2728874 57.6199153,49.7080569 59.8097458,46.4737348 C61.8050847,43.5491586 72.7614407,6.73263315 42.2911017,6.73263315 Z"/>
    <path fill="#F7C5AA" d="M50.409322,47.0716162 C43.2635593,47.4029721 36.2042373,44.7737348 31.8822034,40.8694976 C32.1559322,46.7834806 45.7631356,51.3864467 50.409322,47.0716162 Z"/>
    <path fill="#F7C5AA" d="M33.7622881,40.3580569 C32.3546407,40.8960177 31.2020552,41.9456937 30.5351695,43.2970399 C30.1894068,41.6834806 32.559322,39.4864467 33.7622881,40.3580569 Z"/>
    <path fill="#FFDECC" d="M18.8800847 26.8949213C20.4792373 26.3618704 22.4817797 28.1771247 23.4254237 30.9432264 24.3690678 33.7093281 23.7783898 36.3745823 22.1792373 36.9004298 20.5800847 37.4262772 18.5775424 35.6182264 17.6338983 32.8521247 16.6902542 30.086023 17.2881356 27.4423789 18.8800847 26.8949213zM65.6228814 26.8949213C64.0237288 26.3618704 62.0211864 28.1771247 61.0775424 30.9432264 60.1338983 33.7093281 60.7245763 36.3745823 62.3237288 36.9004298 63.9228814 37.4262772 65.9614407 35.6182264 66.8690678 32.8521247 67.7766949 30.086023 67.2220339 27.4423789 65.6228814 26.8949213z"/>
    <path fill="#802D04" d="M57.2381356,15.9169552 C51.8860169,19.2089043 45.5182203,18.0779721 47.9889831,15.1966162 C50.4597458,12.3152603 47.7440678,14.325006 42.9466102,16.4283959 C38.1491525,18.5317857 32.559322,18.186023 35.8512712,16.4283959 C39.8491525,14.2673789 24.2538136,12.8267009 21.4012712,35.1572094 C16.8271186,19.000006 24.5491525,5.47203993 41.9885593,4.70848061 C60.6165254,3.88729417 68.1584746,18.6254298 63.0080508,34.6745823 C63.2961864,25.8720399 61.2,20.1885654 57.2381356,15.9169552 Z"/>
    <polygon fill="#FFF" points="32.358 60.052 25.918 63.539 35.282 76.505 42.363 69.784"/>
    <polygon fill="#FFF" points="52.318 60.052 58.751 63.539 49.386 76.505 42.306 69.784"/>
    <polygon fill="#FF386A" points="38.394 73.371 40.555 76.778 43.962 76.778 46.123 73.371 42.262 69.661"/>
    <polygon fill="#FF386A" points="40.591 76.778 37.458 98.662 47.132 98.662 43.998 76.778"/>
  </g>
</svg>
