<svg xmlns="http://www.w3.org/2000/svg" width="85" height="80" viewBox="0 0 85 80">
  <g fill="none" transform="translate(-1)">
    <path fill="#A2400F" d="M42.8300971,77.0005237 C17.3548544,77.5121742 14.507767,47.4568344 15.4237864,32.6107179 C17.1485437,4.94032954 42.2606796,-6.17568987 52.5101942,3.3476111 C63.4116505,3.3476111 68.5199029,16.8815917 69.7495146,32.3466402 C71.3917476,52.9281936 63.807767,76.5796499 42.8300971,77.0005237 Z"/>
    <path fill="#FFDECC" d="M50.1995146,58.2840189 C50.034466,58.5398441 33.9009709,58.7956693 33.6946602,59.0514946 C28.6276699,66.2806208 17.676699,69.4495528 8.97864078,71.4301354 C0.280582524,73.4107179 0.00825242718,84.3451839 0,91.6568344 L84.438835,91.6568344 C84.438835,84.3286791 84.265534,73.3694558 75.4271845,71.3888732 C66.588835,69.4082907 55.0024272,65.8432422 50.1995146,58.2840189 Z"/>
    <path fill="#FFDECC" d="M50.6781553,42.85198 L50.6781553,63.5738247 C46.0237864,69.6888732 38.4150485,69.4825626 33.7606796,63.5738247 L33.7606796,42.85198 C33.7606796,31.6534363 50.6781553,31.6534363 50.6781553,42.85198 Z"/>
    <path fill="#F7C5AA" d="M50.6781553,42.85198 L50.6781553,56.7243101 C47.4762136,59.2000383 44.3898058,60.6359606 42.2194175,60.6359606 C40.0490291,60.6359606 36.9626214,59.233048 33.7606796,56.7243101 L33.7606796,42.85198 C33.7606796,31.6534363 50.6781553,31.6534363 50.6781553,42.85198 Z"/>
    <path fill="#FFDECC" d="M42.2276699,57.186446 C36.723301,57.186446 25.0791262,48.5296499 21.4893204,36.1262519 C17.8995146,23.7228538 24.6830097,5.63353343 42.2276699,5.63353343 C59.7723301,5.63353343 66.6053398,23.5990674 62.9660194,36.1262519 C59.3597087,48.5296499 47.7237864,57.186446 42.2276699,57.186446 Z"/>
    <path fill="#FF386A" d="M35.6257282,44.7335334 C38.4315534,42.0184849 40.6184466,44.0568344 42.2276699,44.0568344 C43.8368932,44.0568344 46.0567961,42.0184849 48.8296117,44.7335334 C47.3441748,51.8636305 37.5815534,52.086446 35.6257282,44.7335334 Z"/>
    <path fill="#FFF" d="M36.4509709,45.0718829 C37.9859223,44.6757664 45.8009709,44.6014946 48.0043689,44.9811062 C46.1805825,48.3233393 37.9776699,48.1335334 36.4509709,45.0718829 Z"/>
    <path fill="#FF386A" d="M35.6257282,44.7335334 C38.4315534,42.0184849 40.6184466,44.0568344 42.2276699,44.0568344 C43.8368932,44.0568344 46.0567961,42.0184849 48.8296117,44.7335334 C44.5631068,46.8131451 38.4728155,45.8228538 35.6257282,44.7335334 Z"/>
    <path fill="#FFDECC" d="M18.0150485 28.5670286C19.7893204 27.8078053 22.2898058 29.6728538 23.6101942 32.6932422 24.9305825 35.7136305 24.5509709 38.8578053 22.7849515 39.6170286 21.018932 40.3762519 18.5101942 38.5112033 17.1898058 35.490815 15.8694175 32.4704266 16.2407767 29.3262519 18.0150485 28.5670286zM66.9106796 28.5670286C65.1364078 27.8078053 62.6359223 29.6728538 61.315534 32.6932422 59.9951456 35.7136305 60.3747573 38.8578053 62.1407767 39.6170286 63.9067961 40.3762519 66.415534 38.5112033 67.7359223 35.490815 69.0563107 32.4704266 68.6849515 29.3262519 66.9106796 28.5670286z"/>
    <path fill="#A2400F" d="M64.6330097,35.8951839 C71.2927184,7.35829071 51.1980583,2.50586352 39.4713592,2.50586352 C26.2674757,2.50586352 16.3150485,18.1854752 18.5432039,36.4315917 C25.5825243,32.1815917 31.7883495,23.7971257 47.1873786,10.1146014 C44.9509709,14.125281 40.5854369,21.4369315 25.731068,34.6738247 C33.7194175,35.994213 48.5985437,25.9262519 56.5291262,15.3879024 C58.4354369,22.8811062 61.1587379,31.0757664 64.6330097,35.8951839 Z"/>
    <path fill="#68C497" d="M24.1631068,66.5529509 C19.307595,68.7218421 14.2258514,70.3437929 9.01165049,71.3888732 C0.346601942,73.3281936 0.00825242718,84.3286791 0,91.6568344 L84.438835,91.6568344 C84.438835,84.3286791 84.265534,73.3694558 75.4271845,71.3888732 C70.2236966,70.3090162 65.1579616,68.6481194 60.3252427,66.4374169 C53.0466019,78.5684849 46.4033981,85.1704266 42.2276699,87.4893587 C38.0436893,85.1704266 31.4087379,78.5684849 24.1631068,66.5529509 Z"/>
    <path stroke="#FFF" stroke-dasharray="2.4" stroke-width="1.2" d="M22.6281553,67.1801354 C26.5480583,75.267514 34.6932039,86.2349897 42.2276699,89.8495528 M61.818932,67.1801354 C57.9072816,75.267514 49.7456311,86.2349897 42.2276699,89.8495528"/>
  </g>
</svg>
